<svg width="133" height="136" viewBox="0 0 133 136" fill="none" xmlns="http://www.w3.org/2000/svg">
<circle cx="62.0859" cy="63.9347" r="16" fill="#6155F5"/>
<g filter="url(#filter0_d_2273_3607)">
<path d="M68.3834 59.9433C68.1547 59.2434 67.8533 58.6163 67.4791 58.062C67.1119 57.5007 66.6718 57.0226 66.1591 56.6276C65.6532 56.2326 65.0781 55.9312 64.4336 55.7233C63.7892 55.5154 63.0824 55.4115 62.3132 55.4115C61.052 55.4115 59.9052 55.7371 58.8727 56.3885C57.8402 57.0399 57.0191 57.9996 56.4093 59.2677C55.7995 60.5358 55.4946 62.0915 55.4946 63.9347C55.4946 65.7779 55.803 67.3336 56.4197 68.6017C57.0364 69.8698 57.8714 70.8295 58.9247 71.4809C59.978 72.1323 61.1629 72.4579 62.4795 72.4579C63.6991 72.4579 64.7732 72.1981 65.7017 71.6784C66.6372 71.1517 67.3648 70.4103 67.8845 69.454C68.4111 68.4908 68.6745 67.3579 68.6745 66.0551L69.4644 66.2214H63.0616V63.9347H71.1691V66.2214C71.1691 67.9746 70.7949 69.4991 70.0465 70.7949C69.305 72.0907 68.2795 73.0955 66.9698 73.8092C65.6671 74.516 64.1703 74.8694 62.4795 74.8694C60.5947 74.8694 58.9386 74.4259 57.5111 73.5389C56.0905 72.652 54.9818 71.3908 54.1849 69.7555C53.395 68.1201 53 66.1798 53 63.9347C53 62.2508 53.2252 60.7367 53.6756 59.3924C54.133 58.0412 54.7774 56.8909 55.6089 55.9416C56.4405 54.9922 57.4245 54.2646 58.5609 53.7588C59.6973 53.2529 60.9481 53 62.3132 53C63.4358 53 64.4821 53.1698 65.4523 53.5093C66.4293 53.8419 67.299 54.3166 68.0612 54.9333C68.8304 55.5431 69.4713 56.2742 69.9841 57.1265C70.4969 57.9719 70.8503 58.9108 71.0443 59.9433H68.3834Z" fill="#DDDBFF"/>
</g>
<defs>
<filter id="filter0_d_2273_3607" x="0" y="0" width="132.168" height="135.869" filterUnits="userSpaceOnUse" color-interpolation-filters="sRGB">
<feFlood flood-opacity="0" result="BackgroundImageFix"/>
<feColorMatrix in="SourceAlpha" type="matrix" values="0 0 0 0 0 0 0 0 0 0 0 0 0 0 0 0 0 0 127 0" result="hardAlpha"/>
<feOffset dx="4" dy="4"/>
<feGaussianBlur stdDeviation="28.5"/>
<feComposite in2="hardAlpha" operator="out"/>
<feColorMatrix type="matrix" values="0 0 0 0 0.224773 0 0 0 0 0.178818 0 0 0 0 0.79156 0 0 0 1 0"/>
<feBlend mode="normal" in2="BackgroundImageFix" result="effect1_dropShadow_2273_3607"/>
<feBlend mode="normal" in="SourceGraphic" in2="effect1_dropShadow_2273_3607" result="shape"/>
</filter>
</defs>
</svg>
