<svg width="28" height="28" viewBox="0 0 28 28" fill="none" xmlns="http://www.w3.org/2000/svg">
<rect width="27.4636" height="27.4636" rx="4" fill="#6155F5"/>
<path d="M21.2118 23.1987C21.1691 22.4802 20.2724 21.1504 19.8294 20.5753L23.436 19.8734C23.619 20.4363 23.9532 21.8589 23.8258 23.0463C23.6666 24.5304 21.2651 24.0969 21.2118 23.1987Z" fill="#FF2962"/>
<path d="M16.109 7.90451L9.65212 12.5745L12.6744 19.8124L23.1953 21.6937C23.9725 21.8327 24.5966 21.0585 24.296 20.3285L20.8832 12.0412L16.109 7.90451Z" fill="black"/>
<path d="M13.5625 0.801514L13.3941 8.71877L13.9525 12.1003L20.2569 11.7034L13.5625 0.801514Z" fill="black"/>
<path d="M5.71094 3.96851L7.79226 14.9106L12.6608 19.8313L15.2985 14.4053L5.71094 3.96851Z" fill="black"/>
<ellipse cx="14.8454" cy="15.5051" rx="0.81481" ry="0.754522" transform="rotate(5.41574 14.8454 15.5051)" fill="#FF8400"/>
<ellipse cx="18.1867" cy="13.517" rx="0.794845" ry="0.736033" transform="rotate(5.41574 18.1867 13.517)" fill="#FF8400"/>
<path d="M13.1221 19.6189L12.4023 27.4636H4C1.79086 27.4636 0 25.6728 0 23.4636V21.2859L8.10156 14.3972L13.1221 19.6189Z" fill="black"/>
</svg>
